<?xml version="1.0" standalone="no"?>
<!DOCTYPE svg PUBLIC "-//W3C//DTD SVG 20010904//EN"
 "http://www.w3.org/TR/2001/REC-SVG-20010904/DTD/svg10.dtd">
<svg version="1.0" xmlns="http://www.w3.org/2000/svg"
 width="900.000000pt" height="900.000000pt" viewBox="0 0 900.000000 900.000000"
 preserveAspectRatio="xMidYMid meet">

<g transform="translate(0.000000,900.000000) scale(0.100000,-0.100000)"
fill="#000000" stroke="none">
<path d="M630 5210 c-161 -22 -290 -87 -411 -210 -141 -141 -208 -304 -209
-503 0 -276 148 -518 393 -641 109 -55 198 -76 328 -76 270 0 519 152 639 391
73 143 96 350 57 499 -23 86 -85 211 -142 282 -147 186 -412 290 -655 258z
m197 -205 c41 -77 83 -185 83 -212 0 -10 -32 -13 -143 -13 l-143 0 -30 43 -30
42 24 55 c13 30 40 81 59 113 l35 58 52 -3 51 -3 42 -80z m-317 42 c0 -1 -15
-38 -34 -81 -27 -63 -41 -82 -64 -92 -16 -6 -42 -28 -58 -48 -27 -34 -32 -36
-87 -36 l-58 0 17 33 c26 50 143 158 209 194 54 29 75 38 75 30z m516 -33 c67
-40 151 -118 195 -181 16 -23 29 -44 29 -48 0 -3 -46 -4 -102 -3 l-102 3 -36
105 c-20 58 -41 115 -48 127 -24 44 -14 44 64 -3z m-665 -377 c14 -18 18 -53
20 -165 l4 -142 -117 0 -116 0 -11 50 c-14 65 -14 165 0 230 l11 50 96 0 c89
-1 98 -2 113 -23z m583 7 c3 -9 6 -64 6 -122 l-1 -107 -38 -18 c-21 -9 -44
-28 -51 -42 l-13 -25 -167 0 -167 0 -7 38 c-3 20 -6 76 -6 124 l0 88 40 20
c21 11 44 29 50 40 10 19 21 20 179 20 145 0 170 -2 175 -16z m368 -19 c11
-38 11 -208 0 -255 l-8 -35 -93 -3 c-91 -3 -93 -2 -114 25 -20 24 -23 43 -27
165 l-5 139 119 -3 120 -3 8 -30z m-882 -486 c12 -39 32 -96 46 -126 13 -31
24 -57 24 -59 0 -23 -125 53 -188 114 -26 26 -62 68 -80 95 l-33 47 105 0 104
0 22 -71z m433 36 l27 -34 -20 -53 c-11 -29 -37 -82 -58 -118 l-37 -65 -52 -3
-52 -3 -30 53 c-37 64 -89 186 -97 228 l-6 30 148 0 149 0 28 -35z m371 3
c-28 -54 -154 -171 -222 -207 -35 -18 -65 -31 -67 -29 -2 2 12 43 33 91 29 69
42 89 63 96 15 5 40 25 55 45 28 34 32 36 92 36 l63 0 -17 -32z"/>
<path d="M2135 5047 c-213 -55 -354 -272 -317 -491 42 -253 276 -409 534 -355
64 14 148 52 188 86 l30 25 0 199 0 199 -145 0 -145 0 0 -80 0 -80 55 0 55 0
0 -75 c0 -74 0 -75 -32 -91 -50 -26 -174 -23 -232 6 -55 26 -109 86 -124 139
-15 49 -15 143 0 192 16 54 69 113 126 140 73 36 180 33 264 -9 l63 -31 50 56
c27 31 50 61 50 67 0 16 -80 66 -143 88 -71 25 -208 33 -277 15z"/>
<path d="M8232 4983 c-22 -9 -44 -63 -37 -94 8 -36 40 -59 83 -59 44 0 67 13
81 48 14 33 2 77 -27 98 -17 13 -75 17 -100 7z"/>
<path d="M3393 4770 c-61 -13 -112 -39 -153 -80 -55 -55 -74 -103 -78 -197 -3
-71 -1 -89 21 -136 57 -124 178 -188 317 -166 149 23 243 135 243 289 0 92
-23 150 -83 210 -69 69 -171 99 -267 80z m157 -178 c112 -112 16 -296 -137
-261 -114 25 -148 188 -58 268 32 27 43 31 97 31 57 0 63 -2 98 -38z"/>
<path d="M5403 4770 c-96 -20 -187 -98 -217 -187 -20 -60 -20 -147 0 -206 22
-65 91 -139 156 -167 69 -29 176 -31 240 -3 62 28 115 77 146 137 23 44 27 63
27 136 0 73 -4 92 -27 136 -61 117 -195 180 -325 154z m135 -156 c43 -25 65
-63 70 -119 8 -97 -51 -166 -141 -167 -89 -2 -147 57 -147 150 0 64 20 106 63
132 39 24 118 26 155 4z"/>
<path d="M2790 4763 c-19 -2 -45 -6 -57 -8 l-23 -5 0 -280 0 -280 85 0 85 0 0
186 0 186 35 35 c30 30 40 34 73 31 20 -3 44 -8 53 -12 13 -6 18 5 27 63 16
95 18 91 -33 91 -49 0 -108 -20 -137 -47 -17 -15 -18 -14 -18 15 0 35 0 34
-90 25z"/>
<path d="M3840 4567 c0 -199 1 -204 26 -255 56 -113 188 -154 303 -94 l41 22
0 -25 c0 -25 1 -25 80 -25 l80 0 0 290 0 290 -80 0 -80 0 0 -180 c0 -196 -6
-224 -54 -249 -30 -17 -91 -9 -117 15 -31 28 -39 80 -39 252 l0 162 -80 0 -80
0 0 -203z"/>
<path d="M4570 4761 l-55 -6 -3 -402 -2 -403 80 0 80 0 0 140 0 141 31 -16
c48 -26 118 -29 183 -11 102 30 182 126 201 243 9 59 -18 155 -60 212 -69 95
-209 137 -308 93 -46 -20 -47 -21 -47 -1 0 20 0 20 -100 10z m310 -150 c89
-64 84 -212 -10 -262 -67 -37 -155 -17 -185 41 -9 18 -15 56 -15 99 0 60 3 74
26 100 43 52 128 62 184 22z"/>
<path d="M5950 4763 c-19 -2 -45 -6 -57 -8 l-23 -5 0 -280 0 -280 80 0 80 0 0
189 0 189 29 31 c38 40 96 43 138 7 l28 -24 3 -196 3 -196 79 0 78 0 4 189 3
190 29 30 c38 40 92 42 133 7 l28 -24 3 -196 3 -196 80 0 79 0 0 211 c0 211 0
211 -27 261 -19 34 -41 58 -72 76 -40 24 -57 27 -131 27 -74 0 -91 -3 -133
-27 l-49 -28 -44 26 c-66 39 -154 43 -216 11 l-48 -24 0 23 c0 25 0 25 -80 17z"/>
<path d="M7045 4757 c-51 -14 -122 -44 -130 -56 -2 -4 10 -28 26 -53 l30 -46
37 15 c20 9 68 16 105 17 64 1 71 -1 93 -27 13 -15 24 -34 24 -42 0 -12 -6
-12 -41 0 -58 21 -155 19 -204 -4 -48 -22 -89 -67 -105 -117 -17 -50 -8 -138
17 -172 52 -71 189 -102 277 -63 59 26 56 25 56 1 0 -18 7 -20 81 -20 l80 0
-3 218 c-3 214 -3 218 -30 262 -38 65 -92 93 -188 97 -41 1 -97 -3 -125 -10z
m148 -298 c30 -16 37 -28 37 -65 0 -44 -30 -66 -94 -72 -87 -7 -137 32 -122
93 4 14 19 31 34 39 32 18 115 21 145 5z"/>
<path d="M7610 4763 c-19 -2 -45 -6 -57 -8 l-23 -5 0 -280 0 -280 85 0 85 0 0
191 0 191 29 29 c49 48 126 35 156 -26 12 -26 15 -71 15 -209 l0 -176 80 0 80
0 0 208 c0 179 -3 212 -19 247 -49 109 -186 156 -294 101 l-47 -23 0 23 c0 25
-4 26 -90 17z"/>
<path d="M8200 4480 l0 -290 80 0 80 0 0 290 0 290 -80 0 -80 0 0 -290z"/>
<path d="M8657 4759 c-53 -12 -137 -50 -137 -60 0 -5 12 -28 27 -50 21 -32 31
-39 47 -34 12 3 51 11 88 17 59 9 71 8 105 -8 28 -14 39 -26 41 -46 l3 -28
-35 15 c-55 23 -163 19 -216 -7 -100 -51 -138 -189 -79 -284 43 -71 185 -104
274 -65 58 26 55 25 55 1 0 -18 7 -20 80 -20 l80 0 0 213 c0 185 -3 217 -19
253 -21 45 -67 85 -120 103 -39 13 -139 13 -194 0z m151 -305 c17 -12 22 -25
22 -59 0 -40 -3 -46 -32 -61 -49 -25 -135 -15 -165 20 -30 35 -29 51 6 87 26
25 37 29 88 29 37 0 67 -6 81 -16z"/>
</g>
</svg>
