<svg width="2774" height="2883" viewBox="0 0 2774 2883" fill="none" xmlns="http://www.w3.org/2000/svg">
<path d="M2127.19 1441.46C2126.82 1320.32 2114.33 1199.54 2089.91 1081.09H2401.96C2385.9 1031.67 2366.48 983.505 2343.89 936.935H2053.51C1998.91 747.383 1914.25 568.64 1802.99 408.084C1731.91 377.02 1657.79 354.062 1581.95 339.613C1734.36 509.822 1849.41 712.393 1919.15 933.332H1451.92V324.298H1321.91V934.232H854.688C924.56 712.894 1039.91 509.998 1192.75 339.613C1117.23 353.821 1043.41 376.476 972.576 407.184C860.882 567.066 775.63 745.194 720.33 934.232H428.212C405.203 981.652 385.505 1030.73 369.268 1081.09H683.924C659.505 1199.54 647.013 1320.32 646.651 1441.46C646.89 1573.97 661.428 1706.03 689.992 1835.17H383.137C401.07 1885.66 422.508 1934.75 447.282 1982.02H727.265C780.333 2154.62 859.005 2317.55 960.441 2464.92C1033.08 2497.31 1108.96 2521.18 1186.68 2536.09C1045.21 2375.71 936.409 2187.24 866.824 1982.02H1322.78V2553.22H1452.79V1982.02H1907.01C1837.18 2187.33 1728.09 2375.8 1586.29 2536.09C1664.38 2520.66 1740.55 2496.18 1813.39 2463.13C1914.66 2316.31 1993.34 2153.99 2046.57 1982.02H2323.95C2348.62 1935.62 2370.05 1887.45 2388.09 1837.87H2080.37C2110.29 1707.99 2126 1575.01 2127.19 1441.46ZM1321.91 1835.17H824.349C763.322 1587.22 760.647 1327.63 816.548 1078.38H1321.91V1835.17ZM1949.49 1835.17H1451.92V1081.09H1957.29C1982.19 1199.44 1994.4 1320.31 1993.69 1441.46C1994.4 1574.08 1979.56 1706.29 1949.49 1835.17Z" fill="white"/>
<path d="M1386.92 0C1112.61 0 844.464 84.5424 616.387 242.936C388.31 401.331 210.545 626.462 105.573 889.862C0.600948 1153.26 -26.8647 1443.1 26.6499 1722.72C80.1643 2002.35 212.255 2259.2 406.219 2460.8C600.183 2662.39 847.308 2799.68 1116.34 2855.3C1385.38 2910.93 1664.24 2882.37 1917.66 2773.28C2171.09 2664.17 2387.7 2479.41 2540.1 2242.36C2692.5 2005.3 2773.83 1726.6 2773.83 1441.5C2773.83 1059.19 2627.71 692.539 2367.62 422.205C2107.52 151.873 1754.75 0 1386.92 0ZM1386.92 2702.81C1146.9 2702.81 912.271 2628.84 712.704 2490.24C513.136 2351.65 357.592 2154.66 265.741 1924.18C173.89 1693.71 149.858 1440.1 196.684 1195.43C243.508 950.76 359.088 726.016 528.806 549.618C698.524 373.22 914.758 253.091 1150.16 204.423C1385.57 155.755 1629.58 180.734 1851.32 276.199C2073.07 371.665 2262.6 533.33 2395.95 740.753C2529.29 948.174 2600.47 1192.04 2600.47 1441.5C2600.47 1776.02 2472.61 2096.85 2245.03 2333.38C2017.45 2569.92 1708.77 2702.81 1386.92 2702.81Z" fill="white"/>
</svg>
