<?xml version="1.0" standalone="no"?><svg xmlns:xlink="http://www.w3.org/1999/xlink" xmlns="http://www.w3.org/2000/svg" viewBox="0 0 1000 555.5574689139061" preserveAspectRatio="xMaxYMax slice"><g transform="scale(1.4350187628703246)"><rect x="0" y="0" width="696.8574" height="387.14300000000003" fill="#ffffff"/><rect x="387.14300000000003" y="77.4286" width="77.4286" height="77.4286" fill="#ffffff"/><polygon points="387.14,77.43 425.84999999999997,77.43 387.14,116.14000000000001" fill="#FFD7D7"/><polygon points="309.71,154.86 387.14,232.29000000000002 309.71,232.29000000000002" fill="#FFD7D7"/><polygon points="464.57,154.86 542,154.86 542,232.29000000000002" fill="#FFD7D7"/><polygon points="0,232.29 77.43,309.72 0,309.72" fill="#fd2d01"/><rect x="77.4286" y="232.2858" width="77.4286" height="77.4286" fill="#ffffff"/><polygon points="77.43,232.29 116.14000000000001,232.29 77.43,271" fill="#FFD7D7"/><polygon points="154.85,232.29 154.85,271 116.14,271" fill="#FFD7D7"/><polygon points="77.43,271 116.14000000000001,271 116.14000000000001,309.71" fill="#fd2d01"/><polygon points="116.14,271 154.85,271 154.85,309.71" fill="#fd2d01"/><polygon points="154.86,232.29 232.29000000000002,232.29 154.86,309.72" fill="#FFD7D7"/><rect x="232.2858" y="232.2858" width="77.4286" height="77.4286" fill="#ffffff"/><polygon points="232.29,232.29 271,232.29 232.29,271" fill="#FFD7D7"/><polygon points="232.29,271 271,271 271,309.71" fill="#FFD7D7"/><polygon points="271,271 309.71,271 271,309.71" fill="#fd2d01"/><rect x="309.7144" y="232.2858" width="77.4286" height="77.4286" fill="#ffffff"/><polygon points="309.71,232.29 348.41999999999996,232.29 309.71,271" fill="#FFD7D7"/><polygon points="309.71,271 348.41999999999996,271 348.41999999999996,309.71" fill="#fd2d01"/><polygon points="348.43,271 387.14,271 348.43,309.71" fill="#fd2d01"/><rect x="387.14300000000003" y="232.2858" width="77.4286" height="77.4286" fill="#ffffff"/><polygon points="387.14,232.29 425.84999999999997,232.29 387.14,271" fill="#FFD7D7"/><polygon points="425.86,232.29 464.57,232.29 464.57,271" fill="#fd2d01"/><polygon points="387.14,271 425.84999999999997,271 387.14,309.71" fill="#fd2d01"/><polygon points="425.86,271 464.57,309.71 425.86,309.71" fill="#FFD7D7"/><polygon points="542,232.29 542,309.72 464.57,309.72" fill="#fd2d01"/><polygon points="542,232.29 619.4300000000001,232.29 619.4300000000001,309.72" fill="#fd2d01"/><polygon points="619.43,232.29 696.8599999999999,309.72 619.43,309.72" fill="#FFD7D7"/><rect x="0" y="309.7144" width="77.4286" height="77.4286" fill="#ffffff"/><polygon points="0,309.71 38.71,309.71 0,348.41999999999996" fill="#fd2d01"/><polygon points="77.42,309.71 77.42,348.41999999999996 38.71,348.41999999999996" fill="#fd2d01"/><polygon points="0,348.43 38.71,387.14 0,387.14" fill="#FFD7D7"/><polygon points="38.71,348.43 77.42,348.43 77.42,387.14" fill="#fd2d01"/><rect x="77.4286" y="309.7144" width="77.4286" height="77.4286" fill="#ffffff"/><polygon points="77.43,309.71 116.14000000000001,309.71 116.14000000000001,348.41999999999996" fill="#FFD7D7"/><polygon points="116.14,309.71 154.85,348.41999999999996 116.14,348.41999999999996" fill="#FFD7D7"/><polygon points="116.14000000000001,348.43 116.14000000000001,387.14 77.43,387.14" fill="#fd2d01"/><polygon points="116.14,348.43 154.85,348.43 116.14,387.14" fill="#FFD7D7"/><rect x="154.8572" y="309.7144" width="77.4286" height="77.4286" fill="#ffffff"/><polygon points="154.86,309.71 193.57000000000002,309.71 154.86,348.41999999999996" fill="#fd2d01"/><polygon points="193.57,309.71 232.28,348.41999999999996 193.57,348.41999999999996" fill="#fd2d01"/><polygon points="193.57000000000002,348.43 193.57000000000002,387.14 154.86,387.14" fill="#fd2d01"/><polygon points="232.28,348.43 232.28,387.14 193.57,387.14" fill="#fd2d01"/><polygon points="232.29,309.71 309.72,309.71 232.29,387.14" fill="#fd2d01"/><rect x="309.7144" y="309.7144" width="77.4286" height="77.4286" fill="#ffffff"/><polygon points="309.71,309.71 348.41999999999996,309.71 348.41999999999996,348.41999999999996" fill="#FFD7D7"/><polygon points="348.43,309.71 387.14,348.41999999999996 348.43,348.41999999999996" fill="#FFD7D7"/><polygon points="309.71,348.43 348.41999999999996,348.43 348.41999999999996,387.14" fill="#fd2d01"/><polygon points="348.43,348.43 387.14,387.14 348.43,387.14" fill="#FFD7D7"/><rect x="387.14300000000003" y="309.7144" width="77.4286" height="77.4286" fill="#ffffff"/><polygon points="425.84999999999997,309.71 425.84999999999997,348.41999999999996 387.14,348.41999999999996" fill="#FFD7D7"/><polygon points="425.86,309.71 464.57,309.71 425.86,348.41999999999996" fill="#fd2d01"/><polygon points="387.14,348.43 425.84999999999997,387.14 387.14,387.14" fill="#fd2d01"/><polygon points="425.86,348.43 464.57,348.43 464.57,387.14" fill="#fd2d01"/><rect x="464.5716" y="309.7144" width="77.4286" height="77.4286" fill="#ffffff"/><polygon points="503.28,309.71 503.28,348.41999999999996 464.57,348.41999999999996" fill="#FFD7D7"/><polygon points="464.57,348.43 503.28,348.43 503.28,387.14" fill="#fd2d01"/><rect x="542.0002000000001" y="309.7144" width="77.4286" height="77.4286" fill="#ffffff"/><polygon points="580.71,309.71 580.71,348.41999999999996 542,348.41999999999996" fill="#fd2d01"/><polygon points="580.71,309.71 619.4200000000001,309.71 619.4200000000001,348.41999999999996" fill="#fd2d01"/><polygon points="542,348.43 580.71,387.14 542,387.14" fill="#fd2d01"/><polygon points="580.71,348.43 619.4200000000001,348.43 619.4200000000001,387.14" fill="#FFD7D7"/><rect x="619.4288" y="309.7144" width="77.4286" height="77.4286" fill="#ffffff"/><polygon points="658.14,309.71 696.85,309.71 696.85,348.41999999999996" fill="#fd2d01"/><polygon points="619.43,348.43 658.14,387.14 619.43,387.14" fill="#FFD7D7"/><polygon points="658.14,348.43 696.85,387.14 658.14,387.14" fill="#fd2d01"/></g></svg>